{
  "accessors": [
    {
      "bufferView": 2,
      "componentType": 5126,
      "count": 65533,
      "max": [
        3.8069321028899594e-09,
        82.96551513671875,
        112.76744842529297
      ],
      "min": [
        -77.54999542236328,
        30.562097549438477,
        -37.66851043701172
      ],
      "type": "VEC3"
    },
    {
      "bufferView": 2,
      "byteOffset": 786396,
      "componentType": 5126,
      "count": 65533,
      "max": [
        0.9999989867210388,
        0.8052173852920532,
        0.8354871273040771
      ],
      "min": [
        -0.7132183313369751,
        -0.9908186793327332,
        -0.9999798536300659
      ],
      "type": "VEC3"
    },
    {
      "bufferView": 1,
      "componentType": 5126,
      "count": 65533,
      "max": [
        0.9813680052757263,
        0.6327790021896362
      ],
      "min": [
        0.008519968017935753,
        0.010918617248535156
      ],
      "type": "VEC2"
    },
    {
      "bufferView": 0,
      "componentType": 5125,
      "count": 65535,
      "type": "SCALAR"
    },
    {
      "bufferView": 2,
      "byteOffset": 1572792,
      "componentType": 5126,
      "count": 65532,
      "max": [
        1.8597083872862186e-09,
        79.77937316894531,
        112.79194641113281
      ],
      "min": [
        -75.4722671508789,
        30.470130920410156,
        -22.389331817626953
      ],
      "type": "VEC3"
    },
    {
      "bufferView": 2,
      "byteOffset": 2359176,
      "componentType": 5126,
      "count": 65532,
      "max": [
        0.9993333220481873,
        0.9955511093139648,
        0.9996745586395264
      ],
      "min": [
        -0.9544943571090698,
        -0.99936842918396,
        -0.9999905228614807
      ],
      "type": "VEC3"
    },
    {
      "bufferView": 1,
      "byteOffset": 524264,
      "componentType": 5126,
      "count": 65532,
      "max": [
        0.9914800524711609,
        0.9104029536247253
      ],
      "min": [
        0.03375920653343201,
        0.012393712997436523
      ],
      "type": "VEC2"
    },
    {
      "bufferView": 0,
      "byteOffset": 262140,
      "componentType": 5125,
      "count": 65532,
      "type": "SCALAR"
    },
    {
      "bufferView": 2,
      "byteOffset": 3145560,
      "componentType": 5126,
      "count": 65532,
      "max": [
        69.960205078125,
        79.77937316894531,
        112.79194641113281
      ],
      "min": [
        -6.031134605407715,
        30.470130920410156,
        49.260955810546875
      ],
      "type": "VEC3"
    },
    {
      "bufferView": 2,
      "byteOffset": 3931944,
      "componentType": 5126,
      "count": 65532,
      "max": [
        0.9544968605041504,
        0.9954754710197449,
        0.9996745586395264
      ],
      "min": [
        -0.9752693772315979,
        -0.9993662238121033,
        -0.9999905228614807
      ],
      "type": "VEC3"
    },
    {
      "bufferView": 1,
      "byteOffset": 1048520,
      "componentType": 5126,
      "count": 65532,
      "max": [
        0.9612104296684265,
        0.8684462308883667
      ],
      "min": [
        0.008519968017935753,
        0.010836601257324219
      ],
      "type": "VEC2"
    },
    {
      "bufferView": 0,
      "byteOffset": 524268,
      "componentType": 5125,
      "count": 65532,
      "type": "SCALAR"
    },
    {
      "bufferView": 2,
      "byteOffset": 4718328,
      "componentType": 5126,
      "count": 65533,
      "max": [
        78.6359634399414,
        82.96551513671875,
        112.5627670288086
      ],
      "min": [
        -5.579124717769446e-09,
        30.470130920410156,
        -37.66851043701172
      ],
      "type": "VEC3"
    },
    {
      "bufferView": 2,
      "byteOffset": 5504724,
      "componentType": 5126,
      "count": 65533,
      "max": [
        0.9997649788856506,
        0.9147223234176636,
        0.9999842643737793
      ],
      "min": [
        -0.7496369481086731,
        -0.9019208550453186,
        -0.917018711566925
      ],
      "type": "VEC3"
    },
    {
      "bufferView": 1,
      "byteOffset": 1572776,
      "componentType": 5126,
      "count": 65533,
      "max": [
        0.9803435206413269,
        0.9913517236709595
      ],
      "min": [
        0.008519968017935753,
        0.010633707046508789
      ],
      "type": "VEC2"
    },
    {
      "bufferView": 0,
      "byteOffset": 786396,
      "componentType": 5125,
      "count": 65535,
      "type": "SCALAR"
    },
    {
      "bufferView": 2,
      "byteOffset": 6291120,
      "componentType": 5126,
      "count": 65533,
      "max": [
        78.69734191894531,
        78.39191436767578,
        112.0124740600586
      ],
      "min": [
        -1.8597081652416136e-09,
        31.535701751708984,
        -35.06521224975586
      ],
      "type": "VEC3"
    },
    {
      "bufferView": 2,
      "byteOffset": 7077516,
      "componentType": 5126,
      "count": 65533,
      "max": [
        0.9999897480010986,
        0.9953916072845459,
        0.999992311000824
      ],
      "min": [
        -0.9993333220481873,
        -0.9975863695144653,
        -0.9999532699584961
      ],
      "type": "VEC3"
    },
    {
      "bufferView": 1,
      "byteOffset": 2097040,
      "componentType": 5126,
      "count": 65533,
      "max": [
        0.9783196449279785,
        0.9913517236709595
      ],
      "min": [
        0.010342063382267952,
        0.01123344898223877
      ],
      "type": "VEC2"
    },
    {
      "bufferView": 0,
      "byteOffset": 1048536,
      "componentType": 5125,
      "count": 65535,
      "type": "SCALAR"
    },
    {
      "bufferView": 2,
      "byteOffset": 7863912,
      "componentType": 5126,
      "count": 65532,
      "max": [
        77.54999542236328,
        82.96551513671875,
        112.76744842529297
      ],
      "min": [
        -5.869704278183008e-09,
        31.689252853393555,
        -37.66851043701172
      ],
      "type": "VEC3"
    },
    {
      "bufferView": 2,
      "byteOffset": 8650296,
      "componentType": 5126,
      "count": 65532,
      "max": [
        0.6091170310974121,
        0.8052160739898682,
        0.3892394006252289
      ],
      "min": [
        -0.9999990463256836,
        -0.9908187985420227,
        -0.9999798536300659
      ],
      "type": "VEC3"
    },
    {
      "bufferView": 1,
      "byteOffset": 2621304,
      "componentType": 5126,
      "count": 65532,
      "max": [
        0.9813680052757263,
        0.6327790021896362
      ],
      "min": [
        0.008519968017935753,
        0.014851570129394531
      ],
      "type": "VEC2"
    },
    {
      "bufferView": 0,
      "byteOffset": 1310676,
      "componentType": 5125,
      "count": 65532,
      "type": "SCALAR"
    },
    {
      "bufferView": 2,
      "byteOffset": 9436680,
      "componentType": 5126,
      "count": 65532,
      "max": [
        55.539581298828125,
        81.34717559814453,
        112.1133804321289
      ],
      "min": [
        -77.0716781616211,
        30.562097549438477,
        -6.926182270050049
      ],
      "type": "VEC3"
    },
    {
      "bufferView": 2,
      "byteOffset": 10223064,
      "componentType": 5126,
      "count": 65532,
      "max": [
        0.7188778519630432,
        0.9147524833679199,
        0.9999923706054688
      ],
      "min": [
        -0.9977861046791077,
        -0.8672648072242737,
        -0.8685230016708374
      ],
      "type": "VEC3"
    },
    {
      "bufferView": 1,
      "byteOffset": 3145560,
      "componentType": 5126,
      "count": 65532,
      "max": [
        0.9771665334701538,
        0.9913517236709595
      ],
      "min": [
        0.008519968017935753,
        0.010633707046508789
      ],
      "type": "VEC2"
    },
    {
      "bufferView": 0,
      "byteOffset": 1572804,
      "componentType": 5125,
      "count": 65532,
      "type": "SCALAR"
    },
    {
      "bufferView": 2,
      "byteOffset": 11009448,
      "componentType": 5126,
      "count": 57357,
      "max": [
        3.7194165525278322e-09,
        82.96551513671875,
        112.00660705566406
      ],
      "min": [
        -78.69734954833984,
        30.470130920410156,
        -37.66851043701172
      ],
      "type": "VEC3"
    },
    {
      "bufferView": 2,
      "byteOffset": 11697732,
      "componentType": 5126,
      "count": 57357,
      "max": [
        0.7496166229248047,
        0.9115742444992065,
        0.9999242424964905
      ],
      "min": [
        -0.9999897480010986,
        -0.9100961089134216,
        -0.917026937007904
      ],
      "type": "VEC3"
    },
    {
      "bufferView": 1,
      "byteOffset": 3669816,
      "componentType": 5126,
      "count": 57357,
      "max": [
        0.9807838797569275,
        0.9913517236709595
      ],
      "min": [
        0.008519968017935753,
        0.008648276329040527
      ],
      "type": "VEC2"
    },
    {
      "bufferView": 0,
      "byteOffset": 1834932,
      "componentType": 5125,
      "count": 57363,
      "type": "SCALAR"
    }
  ],
  "asset": {
    "extras": {
      "author": "8N Films Official (https://sketchfab.com/8nfilms)",
      "license": "CC-BY-4.0 (http://creativecommons.org/licenses/by/4.0/)",
      "source": "https://sketchfab.com/3d-models/green-arrow-eye-mask-0e80bdb6ec3a4e64b5f120ed5c8a256c",
      "title": "Green Arrow Eye Mask"
    },
    "generator": "Sketchfab-12.68.0",
    "version": "2.0"
  },
  "bufferViews": [
    {
      "buffer": 0,
      "byteLength": 2064384,
      "name": "floatBufferViews",
      "target": 34963
    },
    {
      "buffer": 0,
      "byteLength": 4128672,
      "byteOffset": 2064384,
      "byteStride": 8,
      "name": "floatBufferViews",
      "target": 34962
    },
    {
      "buffer": 0,
      "byteLength": 12386016,
      "byteOffset": 6193056,
      "byteStride": 12,
      "name": "floatBufferViews",
      "target": 34962
    }
  ],
  "buffers": [
    {
      "byteLength": 18579072,
      "uri": "scene.bin"
    }
  ],
  "images": [
    {
      "uri": "textures/Arrow_Eye_Mask_baseColor.png"
    }
  ],
  "materials": [
    {
      "doubleSided": true,
      "name": "Arrow_Eye_Mask",
      "pbrMetallicRoughness": {
        "baseColorFactor": [
          0.5831364710158096,
          0.5831364710158096,
          0.5831364710158096,
          1.0
        ],
        "baseColorTexture": {
          "index": 0
        },
        "metallicFactor": 0.2982009812829366,
        "roughnessFactor": 0.7890241686352899
      }
    }
  ],
  "meshes": [
    {
      "name": "Arrow_Eye_Mask_Arrow Eye Mask_0",
      "primitives": [
        {
          "attributes": {
            "NORMAL": 1,
            "POSITION": 0,
            "TEXCOORD_0": 2
          },
          "indices": 3,
          "material": 0,
          "mode": 4
        }
      ]
    },
    {
      "name": "Arrow_Eye_Mask_Arrow Eye Mask_0",
      "primitives": [
        {
          "attributes": {
            "NORMAL": 5,
            "POSITION": 4,
            "TEXCOORD_0": 6
          },
          "indices": 7,
          "material": 0,
          "mode": 4
        }
      ]
    },
    {
      "name": "Arrow_Eye_Mask_Arrow Eye Mask_0",
      "primitives": [
        {
          "attributes": {
            "NORMAL": 9,
            "POSITION": 8,
            "TEXCOORD_0": 10
          },
          "indices": 11,
          "material": 0,
          "mode": 4
        }
      ]
    },
    {
      "name": "Arrow_Eye_Mask_Arrow Eye Mask_0",
      "primitives": [
        {
          "attributes": {
            "NORMAL": 13,
            "POSITION": 12,
            "TEXCOORD_0": 14
          },
          "indices": 15,
          "material": 0,
          "mode": 4
        }
      ]
    },
    {
      "name": "Arrow_Eye_Mask_Arrow Eye Mask_0",
      "primitives": [
        {
          "attributes": {
            "NORMAL": 17,
            "POSITION": 16,
            "TEXCOORD_0": 18
          },
          "indices": 19,
          "material": 0,
          "mode": 4
        }
      ]
    },
    {
      "name": "Arrow_Eye_Mask_Arrow Eye Mask_0",
      "primitives": [
        {
          "attributes": {
            "NORMAL": 21,
            "POSITION": 20,
            "TEXCOORD_0": 22
          },
          "indices": 23,
          "material": 0,
          "mode": 4
        }
      ]
    },
    {
      "name": "Arrow_Eye_Mask_Arrow Eye Mask_0",
      "primitives": [
        {
          "attributes": {
            "NORMAL": 25,
            "POSITION": 24,
            "TEXCOORD_0": 26
          },
          "indices": 27,
          "material": 0,
          "mode": 4
        }
      ]
    },
    {
      "name": "Arrow_Eye_Mask_Arrow Eye Mask_0",
      "primitives": [
        {
          "attributes": {
            "NORMAL": 29,
            "POSITION": 28,
            "TEXCOORD_0": 30
          },
          "indices": 31,
          "material": 0,
          "mode": 4
        }
      ]
    }
  ],
  "nodes": [
    {
      "children": [
        1
      ],
      "matrix": [
        1.0,
        0.0,
        0.0,
        0.0,
        0.0,
        2.220446049250313e-16,
        -1.0,
        0.0,
        0.0,
        1.0,
        2.220446049250313e-16,
        0.0,
        0.0,
        0.0,
        0.0,
        1.0
      ],
      "name": "Sketchfab_model"
    },
    {
      "children": [
        2
      ],
      "matrix": [
        1.0,
        0.0,
        0.0,
        0.0,
        0.0,
        0.0,
        1.0,
        0.0,
        0.0,
        -1.0,
        0.0,
        0.0,
        0.0,
        0.0,
        0.0,
        1.0
      ],
      "name": "Arrow Eye Mask fbx.fbx"
    },
    {
      "children": [
        3,
        5
      ],
      "name": "RootNode"
    },
    {
      "children": [
        4
      ],
      "matrix": [
        0.33784975117106997,
        -0.07236784571780633,
        -0.9384137896151196,
        0.0,
        0.02451373343155053,
        0.9973780100373999,
        -0.06808951436956429,
        0.0,
        0.9408807695488802,
        1.0408340855860843e-16,
        0.33873791859357427,
        0.0,
        -82.64229583740234,
        70.45147705078125,
        269.65252685546875,
        1.0
      ],
      "name": "CINEMA_4D_Editor"
    },
    {
      "name": "Object_4"
    },
    {
      "children": [
        6
      ],
      "name": "Null_1"
    },
    {
      "children": [
        7,
        8,
        9,
        10,
        11,
        12,
        13,
        14
      ],
      "name": "Arrow_Eye_Mask"
    },
    {
      "mesh": 0,
      "name": "Arrow_Eye_Mask_Arrow Eye Mask_0"
    },
    {
      "mesh": 1,
      "name": "Arrow_Eye_Mask_Arrow Eye Mask_0"
    },
    {
      "mesh": 2,
      "name": "Arrow_Eye_Mask_Arrow Eye Mask_0"
    },
    {
      "mesh": 3,
      "name": "Arrow_Eye_Mask_Arrow Eye Mask_0"
    },
    {
      "mesh": 4,
      "name": "Arrow_Eye_Mask_Arrow Eye Mask_0"
    },
    {
      "mesh": 5,
      "name": "Arrow_Eye_Mask_Arrow Eye Mask_0"
    },
    {
      "mesh": 6,
      "name": "Arrow_Eye_Mask_Arrow Eye Mask_0"
    },
    {
      "mesh": 7,
      "name": "Arrow_Eye_Mask_Arrow Eye Mask_0"
    }
  ],
  "samplers": [
    {
      "magFilter": 9729,
      "minFilter": 9987,
      "wrapS": 10497,
      "wrapT": 10497
    }
  ],
  "scene": 0,
  "scenes": [
    {
      "name": "Sketchfab_Scene",
      "nodes": [
        0
      ]
    }
  ],
  "textures": [
    {
      "sampler": 0,
      "source": 0
    }
  ]
}
